<?xml version="1.0" encoding="UTF-8" standalone="no"?>
<svg
   xmlns:dc="http://purl.org/dc/elements/1.1/"
   xmlns:cc="http://creativecommons.org/ns#"
   xmlns:rdf="http://www.w3.org/1999/02/22-rdf-syntax-ns#"
   xmlns:svg="http://www.w3.org/2000/svg"
   xmlns="http://www.w3.org/2000/svg"
   xmlns:sodipodi="http://sodipodi.sourceforge.net/DTD/sodipodi-0.dtd"
   xmlns:inkscape="http://www.inkscape.org/namespaces/inkscape"
   id="visual"
   viewBox="0 0 960 197.5773"
   width="960"
   height="197.5773"
   version="1.1"
   sodipodi:docname="spacer.svg"
   inkscape:version="1.0.2 (e86c870879, 2021-01-15)">
  <metadata
     id="metadata192">
    <rdf:RDF>
      <cc:Work
         rdf:about="">
        <dc:format>image/svg+xml</dc:format>
        <dc:type
           rdf:resource="http://purl.org/dc/dcmitype/StillImage" />
      </cc:Work>
    </rdf:RDF>
  </metadata>
  <defs
     id="defs190">
    <clipPath
       clipPathUnits="userSpaceOnUse"
       id="clipPath198">
      <rect
         style="opacity:0.66;fill:#0000ff;fill-rule:evenodd"
         id="rect200"
         width="959.73877"
         height="197.5773"
         x="0.26120353"
         y="103.4227" />
    </clipPath>
  </defs>
  <sodipodi:namedview
     pagecolor="#ffffff"
     bordercolor="#666666"
     borderopacity="1"
     objecttolerance="10"
     gridtolerance="10"
     guidetolerance="10"
     inkscape:pageopacity="0"
     inkscape:pageshadow="2"
     inkscape:window-width="1920"
     inkscape:window-height="1016"
     id="namedview188"
     showgrid="false"
     inkscape:zoom="1.7927083"
     inkscape:cx="480"
     inkscape:cy="46.577301"
     inkscape:window-x="1366"
     inkscape:window-y="27"
     inkscape:window-maximized="1"
     inkscape:current-layer="visual" />
  <rect
     x="0"
     y="0"
     width="960"
     height="300"
     fill="#252422"
     id="rect177"
     clip-path="url(#clipPath198)"
     transform="translate(0,-103.4227)" />
  <path
     d="m 0,19.577301 22.8,13.8 c 22.9,13.9 68.5,41.5 114.2,40.2 45.7,-1.3 91.3,-31.7 137,-46.2 45.7,-14.5 88.46054,-12.70836 134.36054,1.79164 45.8,14.5 94.63946,41.70836 140.43946,48.90836 45.9,7.2 91.5,-6.2 137.2,-18.7 45.7,-12.5 91.3,-24.1 137,-26.8 45.7,-2.7 91.3,3.7 114.2,6.8 l 22.8,3.2 V 197.5773 H 937.2 823 686 548.8 411.2 274 137 22.8 0 Z"
     fill="#fb8052"
     id="path179"
     sodipodi:nodetypes="ccssccssccccccccccccc" />
  <path
     d="m 0,76.577301 22.8,6.8 c 22.9,6.9 68.5,20.499999 114.2,26.699999 45.7,6.2 91.3,4.8 137,2.2 45.7,-2.7 91.3,-6.7 137.2,-9.2 45.8,-2.5 91.8,-3.499999 137.6,-0.8 45.9,2.6 91.5,9 137.2,5.8 45.7,-3.2 91.3,-15.799999 137,-26.499999 45.7,-10.7 91.3,-19.3 114.2,-23.7 l 22.8,-4.3 V 197.5773 h -22.8 c -22.9,0 -68.5,0 -114.2,0 -45.7,0 -91.3,0 -137,0 -45.7,0 -91.3,0 -137.2,0 -45.8,0 -91.8,0 -137.6,0 -45.9,0 -91.5,0 -137.2,0 -45.7,0 -91.3,0 -137,0 -45.7,0 -91.3,0 -114.2,0 H 0 Z"
     fill="#f67544"
     id="path181" />
  <path
     d="m 0,118.5773 22.8,-1.7 c 22.9,-1.6 68.5,-5 114.2,-8.6 45.7,-3.7 91.3,-7.7 137,-7.5 45.7,0.1 91.3,4.5 137.2,4.8 45.8,0.3 91.8,-3.3 137.6,-6.499999 45.9,-3.2 91.5,-5.8 137.2,-8 45.7,-2.2 91.3,-3.8 137,2.2 45.7,6 91.3,19.599999 114.2,26.499999 l 22.8,6.8 v 71 h -22.8 c -22.9,0 -68.5,0 -114.2,0 -45.7,0 -91.3,0 -137,0 -45.7,0 -91.3,0 -137.2,0 -45.8,0 -91.8,0 -137.6,0 -45.9,0 -91.5,0 -137.2,0 -45.7,0 -91.3,0 -137,0 -45.7,0 -91.3,0 -114.2,0 H 0 Z"
     fill="#f06936"
     id="path183" />
  <path
     d="m 0,133.5773 22.8,1.3 c 22.9,1.4 68.5,4 114.2,2.4 45.7,-1.7 91.3,-7.7 137,-10.5 45.7,-2.9 91.3,-2.5 137.2,5 45.8,7.5 91.8,22.1 137.6,23.3 45.9,1.2 91.5,-11.2 137.2,-15.5 45.7,-4.3 91.3,-0.7 137,5.8 45.7,6.5 91.3,15.9 114.2,20.5 l 22.8,4.7 v 27 h -22.8 c -22.9,0 -68.5,0 -114.2,0 -45.7,0 -91.3,0 -137,0 -45.7,0 -91.3,0 -137.2,0 -45.8,0 -91.8,0 -137.6,0 -45.9,0 -91.5,0 -137.2,0 -45.7,0 -91.3,0 -137,0 -45.7,0 -91.3,0 -114.2,0 H 0 Z"
     fill="#eb5e28"
     id="path185" />
</svg>
