<svg xmlns="http://www.w3.org/2000/svg" width="960" height="198">
   <defs>
      <clipPath clipPathUnits="userSpaceOnUse" id="prefix__a">
         <path opacity=".66" fill-rule="evenodd" d="M.261 103.423H960V301H.261z" />
      </clipPath>
   </defs>
   <path fill="#252422" clip-path="url(#prefix__a)" transform="translate(0 -103.423)" d="M0 0h960v300H0z" />
   <path
      d="M0 19.577l22.8 13.8c22.9 13.9 68.5 41.5 114.2 40.2 45.7-1.3 91.3-31.7 137-46.2 45.7-14.5 88.46-12.708 134.36 1.792 45.8 14.5 94.64 41.708 140.44 48.908 45.9 7.2 91.5-6.2 137.2-18.7 45.7-12.5 91.3-24.1 137-26.8 45.7-2.7 91.3 3.7 114.2 6.8l22.8 3.2v155H0z"
      fill="#fb8052" />
   <path
      d="M0 76.577l22.8 6.8c22.9 6.9 68.5 20.5 114.2 26.7 45.7 6.2 91.3 4.8 137 2.2 45.7-2.7 91.3-6.7 137.2-9.2 45.8-2.5 91.8-3.5 137.6-.8 45.9 2.6 91.5 9 137.2 5.8 45.7-3.2 91.3-15.8 137-26.5s91.3-19.3 114.2-23.7l22.8-4.3v144H0z"
      fill="#f67544" />
   <path
      d="M0 118.577l22.8-1.7c22.9-1.6 68.5-5 114.2-8.6 45.7-3.7 91.3-7.7 137-7.5 45.7.1 91.3 4.5 137.2 4.8 45.8.3 91.8-3.3 137.6-6.5 45.9-3.2 91.5-5.8 137.2-8 45.7-2.2 91.3-3.8 137 2.2s91.3 19.6 114.2 26.5l22.8 6.8v71H0z"
      fill="#f06936" />
   <path
      d="M0 133.577l22.8 1.3c22.9 1.4 68.5 4 114.2 2.4 45.7-1.7 91.3-7.7 137-10.5 45.7-2.9 91.3-2.5 137.2 5 45.8 7.5 91.8 22.1 137.6 23.3 45.9 1.2 91.5-11.2 137.2-15.5 45.7-4.3 91.3-.7 137 5.8s91.3 15.9 114.2 20.5l22.8 4.7v27H0z"
      fill="#eb5e28" />
</svg>